[Header]
FileType HTR
DataType HTRS
FileVersion 1
NumSegments 48
NumFrames 3
DataFrameRate 30
EulerRotationOrder ZYX
CalibrationUnits mm
RotationUnits Degrees
GlobalAxisofGravity Y
BoneLengthAxis Y
ScaleFactor 1.0
[SegmentNames&Hierarchy]
Wolf	GLOBAL
Becken	Wolf
Bauch	Becken
Bauch_001	Bauch
Brust	Bauch_001
Hals	Brust
Kopf_002	Hals
Kopf	Kopf_002
Unterkiefer	Kopf
Hals_fett	Unterkiefer
Maulunten	Unterkiefer
Mauloben	Kopf
MundW_L	Kopf
MundW_R	Kopf
Augen_con	Kopf
IK_Aug_R	Augen_con
IK_Aug_L	Augen_con
Aug_R	Kopf
aug_L	Kopf
Ohr_L	Kopf
Ohr_R	Kopf
Braun_O_L	Kopf
Braun_O_R	Kopf
aug_lied_O_L	Kopf
aug_lied_O_R	Kopf
aug_lied_U_L	Kopf
aug_lied_U_R	Kopf
Bauch_003	Brust
Schalterplatte_L	Bauch_003
Oberarm_L	Schalterplatte_L
Unterarm_L	Oberarm_L
Vorderpfote_L	Unterarm_L
Schalterplatte_R	Bauch_003
Oberarm_R	Schalterplatte_R
Unterarm_R	Oberarm_R
Vorderpfote_R	Unterarm_R
Schwanz	Becken
Schwanz_001	Schwanz
Schwanz_002	Schwanz_001
Schwanz_003	Schwanz_002
Oberschenkel_L	Becken
Unterschenkel_L	Oberschenkel_L
Pfote1_L	Unterschenkel_L
Pfote2_L	Pfote1_L
Oberschenkel_R	Becken
Unterschenkel_R	Oberschenkel_R
Pfote1_R	Unterschenkel_R
Pfote2_R	Pfote1_R
[BasePosition]
Wolf	0	0	0	0	0	0	1
Becken	0	0	0	0	0	0	1
Bauch	0	0	0	0	0	0	1
Bauch_001	0	0	0	0	0	0	1
Brust	0	0	0	0	0	0	1
Hals	0	0	0	0	0	0	1
Kopf_002	0	0	0	0	0	0	1
Kopf	0	0	0	0	0	0	1
Unterkiefer	0	0	0	0	0	0	1
Hals_fett	0	0	0	0	0	0	1
Maulunten	0	0	0	0	0	0	1
Mauloben	0	0	0	0	0	0	1
MundW_L	0	0	0	0	0	0	1
MundW_R	0	0	0	0	0	0	1
Augen_con	0	0	0	0	0	0	1
IK_Aug_R	0	0	0	0	0	0	1
IK_Aug_L	0	0	0	0	0	0	1
Aug_R	0	0	0	0	0	0	1
aug_L	0	0	0	0	0	0	1
Ohr_L	0	0	0	0	0	0	1
Ohr_R	0	0	0	0	0	0	1
Braun_O_L	0	0	0	0	0	0	1
Braun_O_R	0	0	0	0	0	0	1
aug_lied_O_L	0	0	0	0	0	0	1
aug_lied_O_R	0	0	0	0	0	0	1
aug_lied_U_L	0	0	0	0	0	0	1
aug_lied_U_R	0	0	0	0	0	0	1
Bauch_003	0	0	0	0	0	0	1
Schalterplatte_L	0	0	0	0	0	0	1
Oberarm_L	0	0	0	0	0	0	1
Unterarm_L	0	0	0	0	0	0	1
Vorderpfote_L	0	0	0	0	0	0	1
Schalterplatte_R	0	0	0	0	0	0	1
Oberarm_R	0	0	0	0	0	0	1
Unterarm_R	0	0	0	0	0	0	1
Vorderpfote_R	0	0	0	0	0	0	1
Schwanz	0	0	0	0	0	0	1
Schwanz_001	0	0	0	0	0	0	1
Schwanz_002	0	0	0	0	0	0	1
Schwanz_003	0	0	0	0	0	0	1
Oberschenkel_L	0	0	0	0	0	0	1
Unterschenkel_L	0	0	0	0	0	0	1
Pfote1_L	0	0	0	0	0	0	1
Pfote2_L	0	0	0	0	0	0	1
Oberschenkel_R	0	0	0	0	0	0	1
Unterschenkel_R	0	0	0	0	0	0	1
Pfote1_R	0	0	0	0	0	0	1
Pfote2_R	0	0	0	0	0	0	1
[Wolf]
22	0	0	0	-90	-0	0	1.0
23	0	0	0	-90	-0	0	1.0
24	0	0	0	-90	-0	0	1.0
[Becken]
22	0	0.5621799231	0.4481801093	1.771710515	169.387085	90.63691711	1.0
23	0	0.5621799231	0.4366521239	1.869789481	169.3881836	90.67217255	1.0
24	0	0.5621799231	0.4280041456	1.941106439	169.3890076	90.69779968	1.0
[Bauch]
22	0.9404072165	7.335228958e-08	-0.3559131622	-9.70548399e-07	12.60522652	-8.885302805e-08	1.0
23	0.9404072165	7.335228958e-08	-0.3559131622	-9.70548399e-07	12.60522652	-8.885302805e-08	1.0
24	0.9404072165	7.335228958e-08	-0.3559131622	-9.70548399e-07	12.60522652	-8.885302805e-08	1.0
[Bauch_001]
22	1.081897616	8.323696221e-08	1.180524034e-08	-2.503413032e-09	2.360082865	-2.670307531e-08	1.0
23	1.081897616	8.323696221e-08	1.180524034e-08	-2.503413032e-09	2.360082865	-2.670307531e-08	1.0
24	1.081897616	8.323696221e-08	1.180524034e-08	-2.503413032e-09	2.360082865	-2.670307531e-08	1.0
[Brust]
22	1.069831252	8.440110832e-08	3.139576066e-08	5.110827715e-06	11.89136124	-3.549572648e-05	1.0
23	1.069831252	8.440110832e-08	3.139576066e-08	5.110827715e-06	11.4240427	-3.549572648e-05	1.0
24	1.069831252	8.440110832e-08	3.139576066e-08	5.110827715e-06	11.07368469	-3.549572648e-05	1.0
[Hals]
22	1.258022308	9.662471712e-08	0.6079561114	-4.810633527e-06	46.87745667	-2.341890877e-06	1.0
23	1.258022308	9.662471712e-08	0.6079561114	-4.810633527e-06	46.87745667	-2.341890877e-06	1.0
24	1.258022308	9.662471712e-08	0.6079561114	-4.810633527e-06	46.87745667	-2.341890877e-06	1.0
[Kopf_002]
22	1.752595186	3.012712114e-05	0.265181601	0.006653386634	-165.1497192	0.002557684667	1.0
23	1.752595186	3.012712114e-05	0.265181601	0.006653386634	-165.1497192	0.002557684667	1.0
24	1.752595186	3.012712114e-05	0.265181601	0.006653386634	-165.1497192	0.002557684667	1.0
[Kopf]
22	1.015782118	6.868503988e-08	-5.515175872e-08	0.06671773642	120.9717102	-0.02775068954	1.0
23	1.015782118	6.868503988e-08	-5.515175872e-08	0.06757561117	121.9062195	-0.02701803297	1.0
24	1.015782118	6.868503988e-08	-5.515175872e-08	0.06819316	122.6066437	-0.02649508975	1.0
[Unterkiefer]
22	0.6370447874	0.004552732222	0.4060618579	5.412721634	-68.3888092	-3.093543291	1.0
23	0.6370447874	0.004552732222	0.4060618579	5.412721634	-68.3888092	-3.093543291	1.0
24	0.6370447874	0.004552732222	0.4060618579	5.412721634	-68.3888092	-3.093543291	1.0
[Hals_fett]
22	0.2998305857	0.007747137919	0.1206372604	-5.071650982	-59.35961151	5.585564613	1.0
23	0.2998305857	0.007747137919	0.1206372604	-5.071650982	-59.35961151	5.585564613	1.0
24	0.2998305857	0.007747137919	0.1206372604	-5.071650982	-59.35961151	5.585564613	1.0
[Maulunten]
22	0.0831861794	-0.007747565862	-0.1206544712	-3.322209358	38.97271347	-0.8718761206	1.0
23	0.0831861794	-0.007747565862	-0.1206544712	-3.322209358	38.97271347	-0.8718761206	1.0
24	0.0831861794	-0.007747565862	-0.1206544712	-3.322209358	38.97271347	-0.8718761206	1.0
[Mauloben]
22	0.9101490974	0.0004056713078	0.4003697634	-0.1032672822	-28.7776947	0.03543138877	1.0
23	0.9101490974	0.0004056713078	0.4003697634	-0.1032672822	-28.7776947	0.03543138877	1.0
24	0.9101490974	0.0004056713078	0.4003697634	-0.1032672822	-28.7776947	0.03543138877	1.0
[MundW_L]
22	0.673060894	-0.3618555963	0.3751283586	-179.8370972	-17.94885063	24.713974	1.0
23	0.673060894	-0.3618555963	0.3751283586	-179.8370972	-17.94885063	24.713974	1.0
24	0.673060894	-0.3618555963	0.3751283586	-179.8370972	-17.94885063	24.713974	1.0
[MundW_R]
22	0.6732419133	0.3627035022	0.3739836514	179.665329	-18.02427101	-24.69083595	1.0
23	0.6732419133	0.3627035022	0.3739836514	179.665329	-18.02427101	-24.69083595	1.0
24	0.6732419133	0.3627035022	0.3739836514	179.665329	-18.02427101	-24.69083595	1.0
[Augen_con]
22	1.807373166	-0.0001604110003	0.183581531	0.0982221961	157.1545258	0.02385941334	1.0
23	1.807373166	-0.0001604110003	0.183581531	0.0982221961	157.1545258	0.02385941334	1.0
24	1.807373166	-0.0001604110003	0.183581531	0.0982221961	157.1545258	0.02385941334	1.0
[IK_Aug_R]
22	0.3461295962	0.2943200469	-1.071020961e-07	-0.4194760025	-4.963055134	165.6946411	1.0
23	0.3461295962	0.2943200469	-1.071020961e-07	-0.4194760025	-4.963055134	165.6946411	1.0
24	0.3461295962	0.2943200469	-1.071020961e-07	-0.4194760025	-4.963055134	165.6946411	1.0
[IK_Aug_L]
22	0.3461301029	-0.2943200171	-1.967418939e-07	0.4194771945	-4.963055134	-165.6946411	1.0
23	0.3461301029	-0.2943200171	-1.967418939e-07	0.4194771945	-4.963055134	-165.6946411	1.0
24	0.3461301029	-0.2943200171	-1.967418939e-07	0.4194771945	-4.963055134	-165.6946411	1.0
[Aug_R]
22	1.035154939	0.2207805216	-0.09605780989	176.004776	-17.29167175	12.85548782	1.0
23	1.035154939	0.2207805216	-0.09605780989	176.004776	-17.29167175	12.85548782	1.0
24	1.035154939	0.2207805216	-0.09605780989	176.004776	-17.29167175	12.85548782	1.0
[aug_L]
22	1.03504467	-0.2215988934	-0.09535907209	-176.1891022	-17.33180046	-12.83102131	1.0
23	1.03504467	-0.2215988934	-0.09535907209	-176.1891022	-17.33180046	-12.83102131	1.0
24	1.03504467	-0.2215988934	-0.09535907209	-176.1891022	-17.33180046	-12.83102131	1.0
[Ohr_L]
22	0.6407766938	-0.3659991026	-0.6893324852	-24.34923935	53.07765961	-15.02013397	1.0
23	0.6407766938	-0.3659991026	-0.6893324852	-24.34923935	53.07765961	-15.02013397	1.0
24	0.6407766938	-0.3659991026	-0.6893324852	-24.34923935	53.07765961	-15.02013397	1.0
[Ohr_R]
22	0.640958488	0.36349985	-0.690484941	24.05785561	53.12415695	14.75856686	1.0
23	0.640958488	0.36349985	-0.690484941	24.05785561	53.12415695	14.75856686	1.0
24	0.640958488	0.36349985	-0.690484941	24.05785561	53.12415695	14.75856686	1.0
[Braun_O_L]
22	0.9801894426	-0.3706049323	-0.3292509615	-143.317215	-34.69636154	52.39493942	1.0
23	0.9801894426	-0.3706049323	-0.3292509615	-143.317215	-34.69636154	52.39493942	1.0
24	0.9801894426	-0.3706049323	-0.3292509615	-143.317215	-34.69636154	52.39493942	1.0
[Braun_O_R]
22	0.9803640842	0.3690741956	-0.3304226995	143.1826782	-34.83971405	-52.34676361	1.0
23	0.9803640842	0.3690741956	-0.3304226995	143.1826782	-34.83971405	-52.34676361	1.0
24	0.9803640842	0.3690741956	-0.3304226995	143.1826782	-34.83971405	-52.34676361	1.0
[aug_lied_O_L]
22	1.038882375	-0.3271433413	-0.1608109176	-175.8613434	-20.15596771	60.31667709	1.0
23	1.038882375	-0.3271433413	-0.1608109176	-175.8613434	-20.15596771	60.31667709	1.0
24	1.038882375	-0.3271433413	-0.1608109176	-175.8613434	-20.15596771	60.31667709	1.0
[aug_lied_O_R]
22	1.039044976	0.326115787	-0.1618431658	175.7657928	-20.31324005	-60.31218338	1.0
23	1.039044976	0.326115787	-0.1618431658	175.7657928	-20.31324005	-60.31218338	1.0
24	1.039044976	0.326115787	-0.1618431658	175.7657928	-20.31324005	-60.31218338	1.0
[aug_lied_U_L]
22	1.02191329	-0.3312865198	-0.1338392347	-159.8099365	-28.7482872	60.17462158	1.0
23	1.02191329	-0.3312865198	-0.1338392347	-159.8099365	-28.7482872	60.17462158	1.0
24	1.02191329	-0.3312865198	-0.1338392347	-159.8099365	-28.7482872	60.17462158	1.0
[aug_lied_U_R]
22	1.022078872	0.3303525448	-0.1348842829	159.7071381	-28.90532303	-60.15359116	1.0
23	1.022078872	0.3303525448	-0.1348842829	159.7071381	-28.90532303	-60.15359116	1.0
24	1.022078872	0.3303525448	-0.1348842829	159.7071381	-28.90532303	-60.15359116	1.0
[Bauch_003]
22	1.276869178	9.429641068e-08	-0.6079563498	-3.842957085e-06	-137.6799469	1.008550771e-05	1.0
23	1.276869178	9.429641068e-08	-0.6079563498	-3.842957085e-06	-137.6799469	1.008550771e-05	1.0
24	1.276869178	9.429641068e-08	-0.6079563498	-3.842957085e-06	-137.6799469	1.008550771e-05	1.0
[Schalterplatte_L]
22	1.070404768	-0.4015559256	0.1525885761	0.03249917552	68.83810425	-26.12476349	1.0
23	1.093399644	-0.4042919278	0.1668435931	-0.3776947856	69.14872742	-26.51290512	1.0
24	1.110701799	-0.4060819447	0.1773595661	-0.7122288346	69.38983154	-26.83285904	1.0
[Oberarm_L]
22	1.418636799	1.443549991e-07	9.778887033e-08	-60.3417778	-62.0839119	72.52570343	1.0
23	1.418636799	1.443549991e-07	9.778887033e-08	-61.60061646	-62.47822952	74.13544464	1.0
24	1.418636799	1.443549991e-07	9.778887033e-08	-62.5365181	-62.75476837	75.33054352	1.0
[Unterarm_L]
22	2.028227329	8.847563748e-08	-3.725290298e-07	2.816185236	45.33398056	3.012149811	1.0
23	2.028227329	8.847563748e-08	-3.725290298e-07	3.116530895	46.13682556	3.35523653	1.0
24	2.028227329	8.847563748e-08	-3.725290298e-07	3.349200964	46.73759079	3.620810509	1.0
[Vorderpfote_L]
22	1.705947638	1.746229827e-07	-5.704351125e-08	-3.989722729	86.02607727	-3.015913725	1.0
23	1.705947638	1.746229827e-07	-5.704351125e-08	-3.621086597	86.61461639	-2.646818876	1.0
24	1.705947638	1.746229827e-07	-5.704351125e-08	-3.255038977	87.04645538	-2.280256987	1.0
[Schalterplatte_R]
22	0.97083354	0.3824336529	-0.1025981903	92.33647156	79.45014954	123.4791031	1.0
23	0.9788802266	0.3824752569	-0.1105489135	78.8452301	80.1863327	109.4423828	1.0
24	0.9846956134	0.382516861	-0.1163262725	65.68689728	80.42813873	95.65156555	1.0
[Oberarm_R]
22	1.418636322	-1.210719205e-07	-7.450580597e-08	66.12055206	-60.88902664	-77.71671295	1.0
23	1.418636322	-1.210719205e-07	-7.450580597e-08	58.84915161	-59.3921814	-68.92293549	1.0
24	1.418636322	-1.210719205e-07	-7.450580597e-08	52.44045258	-57.39646149	-61.07374573	1.0
[Unterarm_R]
22	2.028231859	1.676380634e-07	-3.608874977e-07	-0.7913059592	63.5877037	-0.3062796891	1.0
23	2.028231859	1.676380634e-07	-3.608874977e-07	-0.1590052396	60.20064545	0.2343461066	1.0
24	2.028231859	1.676380634e-07	-3.608874977e-07	0.3212786913	56.19546127	0.6661679745	1.0
[Vorderpfote_R]
22	1.705937624	7.799826562e-08	1.461012289e-07	-3.398571253	5.016956806	4.724444866	1.0
23	1.705937624	7.799826562e-08	1.461012289e-07	-1.541202545	20.83532715	2.849895954	1.0
24	1.705937624	7.799826562e-08	1.461012289e-07	-0.05158223957	35.63882446	1.544230342	1.0
[Schwanz]
22	-0.1532592028	-1.382431947e-08	0.0951410234	-2.220226997e-05	-113.6369781	2.181978562e-05	1.0
23	-0.1613513827	-1.382431947e-08	0.09908013046	-2.220226997e-05	-112.7446823	2.181978562e-05	1.0
24	-0.1672987789	-1.382431947e-08	0.1024135947	-2.220226997e-05	-112.075882	2.181978562e-05	1.0
[Schwanz_001]
22	0.9104328156	6.868503988e-08	7.788912626e-08	-2.408194405e-06	7.291889191	-5.75290926e-07	1.0
23	0.9104328156	6.868503988e-08	7.788912626e-08	-2.408194405e-06	6.075634003	-5.75290926e-07	1.0
24	0.9104328156	6.868503988e-08	7.788912626e-08	-2.408194405e-06	5.164270878	-5.75290926e-07	1.0
[Schwanz_002]
22	0.7855660319	5.704351125e-08	-1.185253495e-07	8.174235973e-07	-9.584747314	-1.362372615e-07	1.0
23	0.7855660319	5.704351125e-08	-1.185253495e-07	8.174235973e-07	-10.46465206	-1.362372615e-07	1.0
24	0.7855660319	5.704351125e-08	-1.185253495e-07	8.174235973e-07	-11.12417507	-1.362372615e-07	1.0
[Schwanz_003]
22	0.8350355029	6.286426668e-08	-2.072192729e-07	-2.187832479e-06	-1.458808661	1.867661581e-07	1.0
23	0.8350355029	6.286426668e-08	-2.072192729e-07	-2.187832479e-06	-0.9932646751	1.867661581e-07	1.0
24	0.8350355029	6.286426668e-08	-2.072192729e-07	-2.187832479e-06	-0.6442369223	1.867661581e-07	1.0
[Oberschenkel_L]
22	0.5767507553	-0.5836999416	0.05539156497	-167.3764954	-129.4306335	173.3431244	1.0
23	0.5621551275	-0.5836999416	0.07792834938	-167.1974487	-128.4349976	173.1131744	1.0
24	0.5514573455	-0.5836999416	0.09572945535	-167.0444031	-127.6190033	172.9185791	1.0
[Unterschenkel_L]
22	1.686439037	6.984918599e-08	-6.053597446e-08	-23.81844139	-53.68603897	34.09043121	1.0
23	1.686439037	6.984918599e-08	-6.053597446e-08	-21.43917274	-50.02978897	31.63685989	1.0
24	1.686439037	6.984918599e-08	-6.053597446e-08	-19.84747887	-47.16123962	29.99488831	1.0
[Pfote1_L]
22	1.190900326	6.519258022e-08	1.396983862e-07	2.022895336	36.50702667	-6.335596085	1.0
23	1.190900326	6.519258022e-08	1.396983862e-07	2.071782112	35.712677	-6.252481461	1.0
24	1.190900326	6.519258022e-08	1.396983862e-07	2.115147829	34.98699951	-6.177681923	1.0
[Pfote2_L]
22	0.9876257777	7.450580597e-08	-5.587935092e-08	-15.51763725	79.23622131	-22.37039757	1.0
23	0.9876257777	7.450580597e-08	-5.587935092e-08	-12.46134949	78.64317322	-19.35224724	1.0
24	0.9876257777	7.450580597e-08	-5.587935092e-08	-10.40799904	78.24568176	-17.34035492	1.0
[Oberschenkel_R]
22	0.4565873742	0.5837000012	0.1349396706	-69.43572235	-84.25662231	65.19533539	1.0
23	0.4516928792	0.5837000012	0.1352428794	-80.38170624	-84.63406372	76.19237518	1.0
24	0.4485397339	0.5837000012	0.1348649561	-89.64482117	-84.8010025	85.49518585	1.0
[Unterschenkel_R]
22	1.68644917	1.164153218e-07	2.793967901e-08	12.6950922	-41.61746216	-18.57414627	1.0
23	1.68644917	1.164153218e-07	2.793967901e-08	12.53081799	-41.4137764	-18.33557892	1.0
24	1.68644917	1.164153218e-07	2.793967901e-08	12.36601257	-41.11771393	-18.11780357	1.0
[Pfote1_R]
22	1.190900087	1.856824383e-07	4.190951941e-08	-1.918139935	24.689888	6.612746716	1.0
23	1.190900087	1.856824383e-07	4.190951941e-08	-1.881391406	23.33190536	6.702932835	1.0
24	1.190900087	1.856824383e-07	4.190951941e-08	-1.855265617	22.30922127	6.769776344	1.0
[Pfote2_R]
22	0.9876258373	6.984919754e-09	6.635672634e-08	14.51020432	81.6943512	18.31353378	1.0
23	0.9876258373	6.984919754e-09	6.635672634e-08	11.58704758	79.81199646	15.2179327	1.0
24	0.9876258373	6.984919754e-09	6.635672634e-08	9.856685638	78.30622101	13.35536385	1.0
[EndOfFile]
